HIERARCHY
ROOT Hips
{
	OFFSET -3.958830 18.904000 13.208200
	CHANNELS 6 Xposition Yposition Zposition Zrotation Yrotation Xrotation 
	JOINT LHipJoint
	{
		OFFSET 0.000000 0.000000 0.000000
		CHANNELS 3 Zrotation Yrotation Xrotation
		JOINT LeftUpLeg
		{
			OFFSET 1.800000 -1.400000 0.085000
			CHANNELS 3 Zrotation Yrotation Xrotation
			JOINT LeftLeg
			{
				OFFSET 2.215000 -6.000000 0.000000
				CHANNELS 3 Zrotation Yrotation Xrotation
				JOINT LeftFoot
				{
					OFFSET 2.500000 -6.900000 0.000000
					CHANNELS 3 Zrotation Yrotation Xrotation
					JOINT LeftToeBase
					{
						OFFSET 0.200000 -0.500000 1.950000
						CHANNELS 3 Zrotation Yrotation Xrotation
						End Site
						{
							OFFSET 0.000000 0.000000 0.000000
						}
					}
				}
			}
		}
	}
	JOINT RHipJoint
	{
		OFFSET 0.000000 0.000000 0.000000
		CHANNELS 3 Zrotation Yrotation Xrotation
		JOINT RightUpLeg
		{
			OFFSET -1.800000 -1.400000 0.085000
			CHANNELS 3 Zrotation Yrotation Xrotation
			JOINT RightLeg
			{
				OFFSET -2.215000 -6.000000 0.000000
				CHANNELS 3 Zrotation Yrotation Xrotation
				JOINT RightFoot
				{
					OFFSET -2.500000 -6.900000 0.000000
					CHANNELS 3 Zrotation Yrotation Xrotation
					JOINT RightToeBase
					{
						OFFSET -0.200000 -0.500000 1.950000
						CHANNELS 3 Zrotation Yrotation Xrotation
						End Site
						{
							OFFSET 0.000000 0.000000 0.000000
						}
					}
				}
			}
		}
	}
	JOINT LowerBack
	{
		OFFSET 0.000000 0.000000 0.000000
		CHANNELS 3 Zrotation Yrotation Xrotation
		JOINT Spine
		{
			OFFSET -0.087000 1.940000 -0.288900
			CHANNELS 3 Zrotation Yrotation Xrotation
			JOINT Spine1
			{
				OFFSET 0.000000 1.950000 0.060000
				CHANNELS 3 Zrotation Yrotation Xrotation
				JOINT Neck
				{
					OFFSET 0.000000 0.000000 0.000000
					CHANNELS 3 Zrotation Yrotation Xrotation
					JOINT Neck1
					{
						OFFSET 0.000000 1.600000 0.340000
						CHANNELS 3 Zrotation Yrotation Xrotation
						JOINT Head
						{
							OFFSET 0.000000 1.667000 -0.240000
							CHANNELS 3 Zrotation Yrotation Xrotation
							End Site
							{
								OFFSET 0.000000 0.000000 0.000000
							}
						}
					}
				}
				JOINT LeftShoulder
				{
					OFFSET 0.000000 0.000000 0.000000
					CHANNELS 3 Zrotation Yrotation Xrotation
					JOINT LeftArm
					{
						OFFSET 2.700000 1.550000 -0.730000
						CHANNELS 3 Zrotation Yrotation Xrotation
						JOINT LeftForeArm
						{
							OFFSET 5.450000 0.000000 0.000000
							CHANNELS 3 Zrotation Yrotation Xrotation
							JOINT LeftHand
							{
								OFFSET 3.450000 0.000000 0.000000
								CHANNELS 3 Zrotation Yrotation Xrotation
								JOINT LeftHandIndex1
								{
									OFFSET 0.750000 0.000000 0.000000
									CHANNELS 3 Zrotation Yrotation Xrotation
									End Site
									{
										OFFSET 0.000000 0.000000 0.000000
									}
								}
							}
						}
					}
				}
				JOINT RightShoulder
				{
					OFFSET 0.000000 0.000000 0.000000
					CHANNELS 3 Zrotation Yrotation Xrotation
					JOINT RightArm
					{
						OFFSET -2.700000 1.550000 -0.730000
						CHANNELS 3 Zrotation Yrotation Xrotation
						JOINT RightForeArm
						{
							OFFSET -5.450000 0.000000 0.000000
							CHANNELS 3 Zrotation Yrotation Xrotation
							JOINT RightHand
							{
								OFFSET -3.450000 0.000000 0.000000
								CHANNELS 3 Zrotation Yrotation Xrotation
								JOINT RightHandIndex1
								{
									OFFSET -0.750000 0.000000 0.000000
									CHANNELS 3 Zrotation Yrotation Xrotation
									End Site
									{
										OFFSET 0.000000 0.000000 0.000000
									}
								}
							}
						}
					}
				}
			}
		}
	}
}
MOTION
Frames: 7
Frame Time: 0.016667
-0.660900 16.285310 -0.643130 2.682026 6.960419 -2.676112 -14.578367 13.120050 2.849259 18.304696 -0.940875 -11.948622 -9.447058 7.450700 14.289464 0.215152 4.754037 2.837578 0.127350 0.050640 0.106980 18.634114 -12.265236 1.798071 -26.412097 -2.490504 -17.613404 -1.845384 -7.250370 29.386983 -0.172568 -5.067528 2.397157 0.013920 0.024500 0.081950 -5.105365 0.289588 -7.337972 20.008213 -5.867354 8.997994 -22.813555 -1.206561 8.306154 9.491730 -1.457085 -8.661733 -4.433321 -1.923867 42.099795 -3.110480 -3.493290 3.096450 -22.266056 -0.712953 0.867680 -39.365052 7.028007 -8.635236 -14.388282 -20.196767 0.917019 -3.566605 3.255421 -0.045340 0.049970 -0.032920 0.057890 2.187810 0.992958 8.955108 0.371787 -10.479084 0.233480 -5.432205 5.655211 -0.155126 2.753844 -1.510969 0.063890 -0.057200 -0.080930 0.018600 
-0.670460 16.266610 -0.648450 2.515036 6.375172 -2.733595 -14.594643 13.156946 2.878206 18.755244 -0.926844 -12.216162 -9.548927 7.689224 15.053713 0.236285 4.856006 2.788723 0.125270 0.047550 0.109970 18.611702 -12.231763 1.822293 -26.305205 -2.343714 -18.130911 -1.823337 -7.310948 30.083389 -0.175124 -5.107388 2.377651 0.007620 0.014590 0.082810 -5.035539 0.201661 -7.398597 19.593645 -5.713574 9.561739 -22.002778 -1.178421 7.762462 9.422458 -1.369689 -8.706518 -4.261355 -1.824190 42.356281 -3.175550 -3.249540 3.422740 -22.526748 -0.599063 0.902360 -39.684936 7.603047 -8.956373 -14.625142 -20.796600 0.984503 -3.555522 3.270733 -0.046430 0.046230 -0.029330 0.054280 2.604868 0.922822 8.824949 0.685233 -10.577026 0.029332 -7.737804 6.687579 -0.157418 2.775338 -1.540695 0.069150 -0.069750 -0.084190 0.016850 
-0.692400 16.231360 -0.658390 1.968456 5.193384 -2.900629 -14.640683 13.195266 2.991180 20.122295 -0.905455 -13.027381 -10.187919 8.391523 16.813622 0.278358 5.186750 2.639998 0.124980 0.040420 0.125970 18.561900 -12.100069 1.879676 -26.275341 -2.009971 -18.927193 -1.074316 -7.735612 31.518387 -0.198355 -5.241778 2.321023 -0.004740 -0.009970 0.081450 -4.869700 -0.037751 -7.568573 18.787348 -5.599216 10.954670 -20.219035 -1.328825 6.360653 9.223888 -1.312833 -8.761169 -4.150512 -1.508766 43.270385 -3.412560 -2.666380 3.507010 -23.226812 -0.309219 1.045848 -40.544758 9.236541 -9.789809 -15.278087 -22.117232 1.103901 -3.524033 3.277441 -0.023400 0.029950 -0.011190 0.044900 3.730912 0.820703 8.367381 2.142910 -10.352948 -0.890351 -14.626653 9.687439 -0.464081 2.803121 -1.600981 0.070080 -0.079340 -0.087880 0.004200 
-0.722690 16.188810 -0.665160 1.016055 3.900311 -2.612090 -14.765614 13.197538 3.266598 22.340154 -0.911368 -15.115234 -11.336343 9.596684 19.531677 0.328281 5.761366 2.380906 0.120060 0.022540 0.164590 18.440674 -11.878552 1.929354 -25.582410 -1.376534 -19.668757 -0.076116 -8.067424 32.575113 -0.211562 -5.291994 2.296816 -0.020310 -0.051780 0.081370 -4.492939 -0.374344 -7.861170 17.048509 -4.593957 12.874831 -16.245766 -0.994938 2.993859 9.135322 -0.519478 -8.212770 -2.458399 -2.065042 44.141092 -4.638700 -1.792090 3.265110 -24.101499 1.397617 0.660089 -42.660772 10.918275 -10.792247 -15.939086 -23.476237 1.225715 -3.523525 3.242361 0.011460 0.014140 0.015060 0.019070 4.950123 -0.804343 7.058454 6.336173 -10.930592 -3.199033 -26.950335 16.279978 -2.277198 2.777693 -1.703387 0.063660 -0.090320 -0.088870 -0.026890 
-0.764180 16.133530 -0.670470 0.093126 2.992199 -1.525729 -14.951412 13.007679 3.677320 24.930585 -0.912890 -18.289995 -13.041536 11.098344 22.103294 0.403955 6.489120 2.080976 0.104030 -0.007690 0.193280 18.320487 -11.573326 1.928233 -24.348199 -0.605125 -20.823702 0.674098 -8.318352 33.950972 -0.214353 -5.381601 2.264255 -0.038060 -0.066100 0.100290 -4.041829 -0.610565 -8.134489 14.840863 -3.341756 14.076124 -11.938949 -0.321434 -0.705451 9.048004 0.770894 -7.043309 0.353570 -3.402307 42.601290 -6.319810 -1.014360 3.123180 -24.359618 4.427852 -0.214684 -44.431110 12.239410 -11.463024 -17.877459 -24.468298 1.611506 -3.568345 3.227339 0.009960 0.030930 0.019050 -0.001730 5.697410 -4.027412 5.336580 11.684485 -12.534663 -5.792209 -41.504650 27.173098 -7.191667 2.682681 -1.781653 0.061690 -0.112310 -0.087160 -0.048070 
-0.801750 16.095050 -0.677390 -0.882304 1.985641 -0.647510 -15.150522 12.824976 4.106115 27.418652 -0.721548 -21.077316 -14.399439 12.527824 24.246060 0.483432 7.159402 1.806123 0.096240 -0.032090 0.242510 18.200138 -11.238846 1.912182 -23.150899 0.141777 -21.711863 1.359280 -8.513317 35.142359 -0.233537 -5.435021 2.241473 -0.063040 -0.116120 0.106920 -3.576231 -0.927382 -8.397647 12.849604 -2.313316 15.487728 -7.864199 0.595134 -4.442167 8.877491 1.959827 -6.151347 2.776896 -4.442850 42.032808 -7.797210 -0.087820 2.547810 -24.278610 7.911256 -1.183343 -46.085578 13.949500 -12.230285 -20.723180 -25.668057 2.264052 -3.576296 3.202703 0.037140 0.014930 0.047390 -0.033510 6.343058 -7.514814 4.032813 17.837457 -14.488163 -8.227283 -58.973087 37.854995 -16.337313 2.571647 -1.694652 0.063450 -0.138120 -0.093700 -0.080340 
-0.842560 16.050190 -0.685560 -1.824397 1.093649 0.232468 -15.354019 12.655162 4.492997 29.772916 -0.286659 -23.439511 -15.368911 13.702624 25.605131 0.553947 7.699314 1.590136 0.076570 -0.062430 0.261390 18.091299 -10.845980 1.907633 -22.198581 0.905301 -22.328565 2.712801 -8.927645 35.961120 -0.254507 -5.522701 2.213919 -0.093790 -0.154780 0.112780 -3.129671 -1.361214 -8.613002 10.980632 -1.557999 16.440196 -3.736429 1.506312 -7.071199 8.318668 2.256465 -5.617731 3.285151 -4.557536 41.246644 -9.196750 1.120980 2.022500 -23.292646 11.415503 -1.974618 -48.602294 15.580191 -13.060550 -24.095720 -26.550084 3.029037 -3.594358 3.170729 0.061580 0.001480 0.068940 -0.057900 6.877029 -10.406930 3.208661 23.417087 -15.819164 -9.803213 -80.433146 45.686081 -31.470186 2.426801 -1.452475 0.065190 -0.164620 -0.090640 -0.103580 
